<?xml version="1.0" encoding="UTF-8" standalone="no"?>
<svg
   xmlns:dc="http://purl.org/dc/elements/1.1/"
   xmlns:cc="http://creativecommons.org/ns#"
   xmlns:rdf="http://www.w3.org/1999/02/22-rdf-syntax-ns#"
   xmlns:svg="http://www.w3.org/2000/svg"
   xmlns="http://www.w3.org/2000/svg"
   xmlns:xlink="http://www.w3.org/1999/xlink"
   xmlns:sodipodi="http://sodipodi.sourceforge.net/DTD/sodipodi-0.dtd"
   xmlns:inkscape="http://www.inkscape.org/namespaces/inkscape"
   width="1000"
   height="620"
   version="1.1"
   viewBox="0 0 264.59519 164.0383"
   id="svg542"
   sodipodi:docname="ahk_logo__two_rows.svg"
   inkscape:version="1.0.2-2 (e86c870879, 2021-01-15)">
  <sodipodi:namedview
     pagecolor="#ffffff"
     bordercolor="#666666"
     borderopacity="1"
     objecttolerance="10"
     gridtolerance="10"
     guidetolerance="10"
     inkscape:pageopacity="0"
     inkscape:pageshadow="2"
     inkscape:window-width="1280"
     inkscape:window-height="720"
     id="namedview544"
     showgrid="false"
     inkscape:zoom="0.48394534"
     inkscape:cx="341.21124"
     inkscape:cy="150.30259"
     inkscape:window-x="1352"
     inkscape:window-y="104"
     inkscape:window-maximized="0"
     inkscape:current-layer="svg542"
     inkscape:document-rotation="0"
     scale-x="0.2646" />
  <title
     id="title278">AutoHotkey modern logo</title>
  <defs
     id="defs364">
    <linearGradient
       id="a">
      <stop
         stop-color="#cfd0d1"
         offset="0"
         id="stop280" />
      <stop
         stop-color="#dbdbdb"
         offset="1"
         id="stop282" />
    </linearGradient>
    <linearGradient
       id="b">
      <stop
         stop-color="#f4f5f7"
         offset="0"
         id="stop285" />
      <stop
         stop-color="#e9eaeb"
         offset="1"
         id="stop287" />
    </linearGradient>
    <linearGradient
       id="k"
       x1="4.5837002"
       x2="12.759"
       y1="11.944"
       y2="11.944"
       gradientUnits="userSpaceOnUse"
       xlink:href="#b"
       spreadMethod="reflect" />
    <linearGradient
       id="f"
       x1="-1084.9"
       x2="-1062"
       y1="454.41"
       y2="438.75"
       gradientTransform="matrix(0.055219,0,0,-0.055033,64.547,43.998)"
       gradientUnits="userSpaceOnUse"
       xlink:href="#b">
      <stop
         stop-color="#cfd0d1"
         offset="0"
         id="stop291" />
      <stop
         stop-color="#b7b7b7"
         offset="1"
         id="stop293" />
    </linearGradient>
    <linearGradient
       id="e"
       x1="-1084.9"
       x2="-1062"
       y1="454.41"
       y2="438.75"
       gradientTransform="matrix(-0.055219,0,0,-0.055033,-38.079,44.048)"
       gradientUnits="userSpaceOnUse"
       xlink:href="#b">
      <stop
         stop-color="#cfd0d1"
         offset="0"
         id="stop296" />
      <stop
         stop-color="#b7b7b7"
         offset="1"
         id="stop298" />
    </linearGradient>
    <linearGradient
       id="h"
       x1="3.5892"
       x2="5.4735999"
       y1="17.781"
       y2="5.3909001"
       gradientTransform="matrix(0.77624,0,0,1.0263,0.80313,-0.14201)"
       gradientUnits="userSpaceOnUse"
       xlink:href="#a" />
    <linearGradient
       id="g"
       x1="3.5892"
       x2="5.4735999"
       y1="17.781"
       y2="5.3909001"
       gradientTransform="matrix(1.0652,0,0,1,-26.701,0.029204)"
       gradientUnits="userSpaceOnUse"
       xlink:href="#a" />
    <linearGradient
       id="c"
       x1="-1084.9"
       x2="-1062"
       y1="454.41"
       y2="438.75"
       gradientTransform="matrix(0.055219,0,0,0.055033,64.547,-19.403)"
       gradientUnits="userSpaceOnUse"
       xlink:href="#b">
      <stop
         stop-color="#dbdbdb"
         offset="0"
         id="stop303" />
      <stop
         stop-color="#f3f3f3"
         offset="1"
         id="stop305" />
    </linearGradient>
    <linearGradient
       id="d"
       x1="-1076.5"
       x2="-1060.2"
       y1="448.73001"
       y2="425.19"
       gradientTransform="matrix(-0.055219,0,0,0.055033,-38.079,-19.453)"
       gradientUnits="userSpaceOnUse">
      <stop
         stop-color="#dbdbdb"
         offset="0"
         id="stop308" />
      <stop
         stop-color="#f3f3f3"
         offset="1"
         id="stop310" />
    </linearGradient>
    <linearGradient
       id="aa"
       x1="-1084.9"
       x2="-1062"
       y1="454.41"
       y2="438.75"
       gradientTransform="matrix(0.055219,0,0,-0.055033,85.7,43.998)"
       gradientUnits="userSpaceOnUse"
       xlink:href="#f" />
    <linearGradient
       id="y"
       x1="-1084.9"
       x2="-1062"
       y1="454.41"
       y2="438.75"
       gradientTransform="matrix(-0.055219,0,0,-0.055033,-16.902,44.048)"
       gradientUnits="userSpaceOnUse"
       xlink:href="#e" />
    <linearGradient
       id="w"
       x1="3.5892"
       x2="5.4735999"
       y1="17.781"
       y2="5.3909001"
       gradientTransform="matrix(0.90071,0,0,1.0454,21.51,-0.33146)"
       gradientUnits="userSpaceOnUse"
       xlink:href="#a" />
    <linearGradient
       id="u"
       x1="3.5892"
       x2="5.4735999"
       y1="17.781"
       y2="5.3909001"
       gradientTransform="matrix(1.0652,0,0,1,-47.876,-0.028359)"
       gradientUnits="userSpaceOnUse"
       xlink:href="#a" />
    <linearGradient
       id="s"
       x1="-1084.9"
       x2="-1062"
       y1="454.41"
       y2="438.75"
       gradientTransform="matrix(0.055219,0,0,0.055033,85.7,-19.403)"
       gradientUnits="userSpaceOnUse"
       xlink:href="#c" />
    <linearGradient
       id="q"
       x1="-1076.5"
       x2="-1060.2"
       y1="448.73001"
       y2="425.19"
       gradientTransform="matrix(-0.055219,0,0,0.055033,-16.905,-19.453)"
       gradientUnits="userSpaceOnUse"
       xlink:href="#d" />
    <linearGradient
       id="j"
       x1="4.5837002"
       x2="12.759"
       y1="11.944"
       y2="11.944"
       gradientTransform="matrix(1.0035,0,0,1,21.586,-3.1104e-7)"
       gradientUnits="userSpaceOnUse"
       xlink:href="#b"
       spreadMethod="reflect" />
    <linearGradient
       id="i"
       x1="4.5837002"
       x2="12.759"
       y1="11.944"
       y2="11.944"
       gradientTransform="matrix(1.0034,0,0,1,43.022,-1.1038e-8)"
       gradientUnits="userSpaceOnUse"
       xlink:href="#b"
       spreadMethod="reflect" />
    <linearGradient
       id="v"
       x1="3.5892"
       x2="5.4735999"
       y1="17.781"
       y2="5.3909001"
       gradientTransform="matrix(0.92553,0,0,1.0347,42.583,-0.2739)"
       gradientUnits="userSpaceOnUse"
       xlink:href="#a" />
    <linearGradient
       id="r"
       x1="-1084.9"
       x2="-1062"
       y1="454.41"
       y2="438.75"
       gradientTransform="matrix(0.055219,0,0,0.055033,106.86,-19.403)"
       gradientUnits="userSpaceOnUse"
       xlink:href="#c" />
    <linearGradient
       id="p"
       x1="-1076.5"
       x2="-1060.2"
       y1="448.73001"
       y2="425.19"
       gradientTransform="matrix(-0.055219,0,0,0.055033,4.2582,-19.453)"
       gradientUnits="userSpaceOnUse"
       xlink:href="#d" />
    <linearGradient
       id="t"
       x1="3.5892"
       x2="5.4735999"
       y1="17.781"
       y2="5.3909001"
       gradientTransform="matrix(1.0652,0,0,1,-69.039,-0.028359)"
       gradientUnits="userSpaceOnUse"
       xlink:href="#a" />
    <linearGradient
       id="x"
       x1="-1084.9"
       x2="-1062"
       y1="454.41"
       y2="438.75"
       gradientTransform="matrix(-0.055219,0,0,-0.055033,4.2603,44.048)"
       gradientUnits="userSpaceOnUse"
       xlink:href="#e" />
    <linearGradient
       id="z"
       x1="-1084.9"
       x2="-1062"
       y1="454.41"
       y2="438.75"
       gradientTransform="matrix(0.055219,0,0,-0.055033,106.86,43.998)"
       gradientUnits="userSpaceOnUse"
       xlink:href="#f" />
    <linearGradient
       id="o"
       x1="-1084.9"
       x2="-1062"
       y1="454.41"
       y2="438.75"
       gradientTransform="matrix(0.055219,0,0,-0.055033,64.547,43.998)"
       gradientUnits="userSpaceOnUse"
       xlink:href="#f" />
    <linearGradient
       id="n"
       x1="-1084.9"
       x2="-1062"
       y1="454.41"
       y2="438.75"
       gradientTransform="matrix(-0.055219,0,0,-0.055033,-38.079,44.048)"
       gradientUnits="userSpaceOnUse"
       xlink:href="#e" />
    <linearGradient
       id="m"
       x1="-1084.9"
       x2="-1062"
       y1="454.41"
       y2="438.75"
       gradientTransform="matrix(0.055219,0,0,0.055033,64.547,-19.403)"
       gradientUnits="userSpaceOnUse"
       xlink:href="#c" />
    <linearGradient
       id="l"
       x1="-1076.5"
       x2="-1060.2"
       y1="448.73001"
       y2="425.19"
       gradientTransform="matrix(-0.055219,0,0,0.055033,-38.079,-19.453)"
       gradientUnits="userSpaceOnUse"
       xlink:href="#d" />
    <filter
       id="ad"
       color-interpolation-filters="sRGB">
      <feFlood
         flood-color="rgb(0,0,0)"
         result="flood"
         id="feFlood331" />
      <feComposite
         in="flood"
         in2="SourceGraphic"
         operator="in"
         result="composite1"
         id="feComposite333" />
      <feGaussianBlur
         in="composite1"
         result="blur"
         stdDeviation="0.4"
         id="feGaussianBlur335" />
      <feOffset
         dx="0"
         dy="0.5"
         result="offset"
         id="feOffset337" />
      <feComposite
         in="offset"
         in2="offset"
         operator="atop"
         result="composite2"
         id="feComposite339" />
    </filter>
    <filter
       id="ac"
       color-interpolation-filters="sRGB">
      <feFlood
         flood-color="rgb(0,0,0)"
         result="flood"
         id="feFlood342" />
      <feComposite
         in="flood"
         in2="SourceGraphic"
         operator="in"
         result="composite1"
         id="feComposite344" />
      <feGaussianBlur
         in="composite1"
         result="blur"
         stdDeviation="0.4"
         id="feGaussianBlur346" />
      <feOffset
         dx="0"
         dy="0.5"
         result="offset"
         id="feOffset348" />
      <feComposite
         in="offset"
         in2="offset"
         operator="atop"
         result="composite2"
         id="feComposite350" />
    </filter>
    <filter
       id="ab"
       color-interpolation-filters="sRGB">
      <feFlood
         flood-color="rgb(0,0,0)"
         result="flood"
         id="feFlood353" />
      <feComposite
         in="flood"
         in2="SourceGraphic"
         operator="in"
         result="composite1"
         id="feComposite355" />
      <feGaussianBlur
         in="composite1"
         result="blur"
         stdDeviation="0.4"
         id="feGaussianBlur357" />
      <feOffset
         dx="0"
         dy="0.5"
         result="offset"
         id="feOffset359" />
      <feComposite
         in="offset"
         in2="offset"
         operator="atop"
         result="composite2"
         id="feComposite361" />
    </filter>
  </defs>
  <metadata
     id="metadata366">
    <rdf:RDF>
      <cc:Work
         rdf:about="">
        <dc:format>image/svg+xml</dc:format>
        <dc:type
           rdf:resource="http://purl.org/dc/dcmitype/StillImage" />
        <dc:title>AutoHotkey modern logo</dc:title>
        <dc:description>Unfont: fonts converted to paths. Recreation of the Modern logo for AutoHotkey,
fonts used are Myriad Pro 12 pt and 36 pt, and Helvetica 16 pt.</dc:description>
        <dc:creator>
          <cc:Agent>
            <dc:title>joedf</dc:title>
          </cc:Agent>
        </dc:creator>
        <dc:date>July 27th 2020</dc:date>
        <dc:contributor>
          <cc:Agent>
            <dc:title>Author unknown for original logo</dc:title>
          </cc:Agent>
        </dc:contributor>
        <cc:license
           rdf:resource="" />
      </cc:Work>
    </rdf:RDF>
  </metadata>
  <g
     transform="translate(-1.6603,-1.2019254)"
     display="none"
     fill="#ff00ff"
     id="g374">
    <rect
       x="3.5892"
       y="3.0506001"
       width="19.289"
       height="18.493999"
       ry="1.5066"
       display="inline"
       opacity="0.6"
       style="paint-order:stroke fill markers"
       id="rect368" />
    <rect
       x="24.742001"
       y="3.0506001"
       width="19.311001"
       height="18.493999"
       ry="1.5066"
       display="inline"
       opacity="0.6"
       style="paint-order:stroke fill markers"
       id="rect370" />
    <rect
       x="45.904999"
       y="3.0506001"
       width="19.313"
       height="18.493999"
       ry="1.5066"
       display="inline"
       opacity="0.6"
       style="paint-order:stroke fill markers"
       id="rect372" />
  </g>
  <g
     transform="matrix(3.8898413,0,0,3.8552381,-284.77255,79.969603)"
     id="g458">
    <g
       fill="#3f5770"
       stroke-width="0.26458"
       aria-label="AutoHotkey"
       id="g396">
      <path
         d="m 80.059,11.307 0.9144,2.6924 h 1.1811 L 79.2335,5.4396 H 77.9 l -2.9083,8.5598 h 1.143 l 0.889,-2.6924 z m -2.8067,-0.8636 0.8382,-2.4765 c 0.1651,-0.5207 0.3048,-1.0414 0.4318,-1.5494 h 0.0254 c 0.127,0.4953 0.254,1.0033 0.4445,1.5621 l 0.8382,2.4638 z"
         id="path376" />
      <path
         d="m 88.505,7.8525 h -1.1176 v 3.7719 c 0,0.2032 -0.0381,0.4064 -0.1016,0.5715 -0.2032,0.4953 -0.7239,1.016 -1.4732,1.016 -1.016,0 -1.3716,-0.7874 -1.3716,-1.9558 V 7.8525 h -1.1176 v 3.5941 c 0,2.159 1.1557,2.6924 2.1209,2.6924 1.0922,0 1.7399,-0.6477 2.032,-1.143 h 0.0254 l 0.0635,1.0033 h 0.9906 C 88.5177,13.5167 88.505,12.9579 88.505,12.3229 Z"
         id="path378" />
      <path
         d="m 90.756,6.7222 v 1.1303 h -0.9525 v 0.8509 h 0.9525 v 3.3528 c 0,0.7239 0.1143,1.27 0.4318,1.6002 0.2667,0.3048 0.6858,0.4826 1.2065,0.4826 0.4318,0 0.7747,-0.0762 0.9906,-0.1651 l -0.0508,-0.8382 c -0.1651,0.0508 -0.3429,0.0762 -0.6477,0.0762 -0.6223,0 -0.8382,-0.4318 -0.8382,-1.1938 V 8.7034 h 1.6002 V 7.8525 H 91.8482 V 6.3793 Z"
         id="path380" />
      <path
         d="m 97.369,7.7128 c -1.7018,0 -3.048,1.2065 -3.048,3.2639 0,1.9431 1.2827,3.1623 2.9464,3.1623 1.4859,0 3.0607,-0.9906 3.0607,-3.2639 0,-1.8796 -1.1938,-3.1623 -2.9591,-3.1623 z M 97.3436,8.551 c 1.3208,0 1.8415,1.3208 1.8415,2.3622 0,1.3843 -0.8001,2.3876 -1.8669,2.3876 -1.0922,0 -1.8669,-1.016 -1.8669,-2.3622 0,-1.1684 0.5715,-2.3876 1.8923,-2.3876 z"
         id="path382" />
      <path
         d="m 101.92,5.4395 v 8.5598 h 1.1049 V 9.9861 h 4.1402 v 4.0132 h 1.1176 V 5.4395 h -1.1176 v 3.5814 h -4.1402 V 5.4395 Z"
         id="path384" />
      <path
         d="m 112.91,7.7128 c -1.7018,0 -3.048,1.2065 -3.048,3.2639 0,1.9431 1.2827,3.1623 2.9464,3.1623 1.4859,0 3.0607,-0.9906 3.0607,-3.2639 0,-1.8796 -1.1938,-3.1623 -2.9591,-3.1623 z m -0.0254,0.8382 c 1.3208,0 1.8415,1.3208 1.8415,2.3622 0,1.3843 -0.8001,2.3876 -1.8669,2.3876 -1.0922,0 -1.8669,-1.016 -1.8669,-2.3622 0,-1.1684 0.5715,-2.3876 1.8923,-2.3876 z"
         id="path386" />
      <path
         d="m 117.68,6.7222 v 1.1303 h -0.9525 v 0.8509 h 0.9525 v 3.3528 c 0,0.7239 0.1143,1.27 0.4318,1.6002 0.2667,0.3048 0.6858,0.4826 1.2065,0.4826 0.4318,0 0.7747,-0.0762 0.9906,-0.1651 l -0.0508,-0.8382 c -0.1651,0.0508 -0.3429,0.0762 -0.6477,0.0762 -0.6223,0 -0.8382,-0.4318 -0.8382,-1.1938 V 8.7034 h 1.6002 V 7.8525 h -1.6002 V 6.3793 Z"
         id="path388" />
      <path
         d="m 122.87,4.9823 h -1.1049 v 9.017 h 1.1049 v -2.3114 l 0.5715,-0.635 2.1209,2.9464 h 1.3589 l -2.7051,-3.6195 2.3749,-2.5273 h -1.3462 l -1.8034,2.1209 c -0.1778,0.2159 -0.3937,0.4826 -0.5461,0.6985 H 122.87 Z"
         id="path390" />
      <path
         d="m 132.8,11.129 c 0.0127,-0.1143 0.0381,-0.2921 0.0381,-0.5207 0,-1.1303 -0.5334,-2.8956 -2.54,-2.8956 -1.7907,0 -2.8829,1.4605 -2.8829,3.3147 0,1.8542 1.1303,3.1115 3.0226,3.1115 0.9779,0 1.651,-0.2159 2.0447,-0.3937 l -0.1905,-0.8001 c -0.4191,0.1778 -0.9017,0.3175 -1.7018,0.3175 -1.1176,0 -2.0828,-0.6223 -2.1082,-2.1336 z m -4.3053,-0.8001 c 0.0889,-0.7747 0.5842,-1.8161 1.7145,-1.8161 1.2573,0 1.5621,1.1049 1.5494,1.8161 z"
         id="path392" />
      <path
         d="m 133.57,7.8525 2.2733,5.6642 c 0.0508,0.1397 0.0762,0.2286 0.0762,0.2921 0,0.0635 -0.0381,0.1524 -0.0889,0.2667 -0.254,0.5715 -0.635,1.0033 -0.9398,1.2446 -0.3302,0.2794 -0.6985,0.4572 -0.9779,0.5461 l 0.2794,0.9398 c 0.2794,-0.0508 0.8255,-0.2413 1.3716,-0.7239 0.762,-0.6604 1.3081,-1.7399 2.1082,-3.8481 l 1.6764,-4.3815 h -1.1811 l -1.2192,3.6068 c -0.1524,0.4445 -0.2794,0.9144 -0.3937,1.2827 h -0.0254 c -0.1016,-0.3683 -0.254,-0.8509 -0.3937,-1.2573 l -1.3462,-3.6322 z"
         id="path394" />
    </g>
    <g
       fill="#6b6b6b"
       stroke-width="0.26458"
       aria-label="Automation. Hotkeys. Scripting."
       id="g456">
      <path
         d="m 77.355,18.794 0.3048,0.89747 h 0.3937 l -0.97367,-2.8533 h -0.4445 l -0.96943,2.8533 h 0.381 L 76.34323,18.794 Z m -0.93557,-0.28787 0.2794,-0.8255 c 0.05503,-0.17357 0.1016,-0.34713 0.14393,-0.51647 h 0.0085 c 0.04233,0.1651 0.08467,0.33443 0.14817,0.5207 l 0.2794,0.82127 z"
         id="path398" />
      <path
         d="m 80.196,17.642 h -0.37253 v 1.2573 c 0,0.06773 -0.0127,0.13547 -0.03387,0.1905 -0.06773,0.1651 -0.2413,0.33867 -0.49107,0.33867 -0.33867,0 -0.4572,-0.26247 -0.4572,-0.65193 v -1.1345 H 78.4688 v 1.198 c 0,0.71967 0.38523,0.89747 0.70697,0.89747 0.36407,0 0.57997,-0.2159 0.67733,-0.381 h 0.0085 l 0.02117,0.33443 h 0.3302 c -0.0127,-0.16087 -0.01693,-0.34713 -0.01693,-0.5588 z"
         id="path400" />
      <path
         d="m 80.972,17.266 v 0.37677 h -0.3175 v 0.28363 h 0.3175 v 1.1176 c 0,0.2413 0.0381,0.42333 0.14393,0.5334 0.0889,0.1016 0.2286,0.16087 0.40217,0.16087 0.14393,0 0.25823,-0.0254 0.3302,-0.05503 l -0.01693,-0.2794 c -0.05503,0.01693 -0.1143,0.0254 -0.2159,0.0254 -0.20743,0 -0.2794,-0.14393 -0.2794,-0.39793 v -1.1049 h 0.5334 v -0.28364 h -0.5334 V 17.1517 Z"
         id="path402" />
      <path
         d="m 83.202,17.596 c -0.56727,0 -1.016,0.40217 -1.016,1.088 0,0.6477 0.42757,1.0541 0.98213,1.0541 0.4953,0 1.0202,-0.3302 1.0202,-1.088 0,-0.62653 -0.39793,-1.0541 -0.98637,-1.0541 z m -0.0085,0.2794 c 0.44027,0 0.61383,0.44027 0.61383,0.7874 0,0.46143 -0.2667,0.79587 -0.6223,0.79587 -0.36407,0 -0.6223,-0.33867 -0.6223,-0.7874 0,-0.38947 0.1905,-0.79587 0.63077,-0.79587 z"
         id="path404" />
      <path
         d="m 84.732,19.691 h 0.36407 v -1.2361 c 0,-0.0635 0.0085,-0.127 0.02963,-0.18203 0.05927,-0.18627 0.2286,-0.37253 0.46143,-0.37253 0.28363,0 0.42757,0.23707 0.42757,0.56303 v 1.2277 h 0.36407 v -1.2658 c 0,-0.06773 0.0127,-0.13547 0.02963,-0.18627 0.0635,-0.18203 0.2286,-0.33867 0.44027,-0.33867 0.30057,0 0.4445,0.23707 0.4445,0.63077 v 1.1599 h 0.36407 v -1.2065 c 0,-0.7112 -0.40217,-0.889 -0.6731,-0.889 -0.19473,0 -0.3302,0.0508 -0.45297,0.14393 -0.08467,0.0635 -0.1651,0.1524 -0.2286,0.2667 h -0.0085 c -0.0889,-0.2413 -0.30057,-0.41063 -0.57997,-0.41063 -0.33867,0 -0.52917,0.18203 -0.64347,0.37677 h -0.0127 L 85.041,17.64207 h -0.32597 c 0.0127,0.16933 0.01693,0.3429 0.01693,0.55457 z"
         id="path406" />
      <path
         d="m 89.776,18.434 c 0,-0.41063 -0.1524,-0.8382 -0.77893,-0.8382 -0.25823,0 -0.50377,0.07197 -0.6731,0.18203 l 0.08467,0.24553 c 0.14393,-0.09313 0.3429,-0.1524 0.5334,-0.1524 0.4191,0 0.46567,0.3048 0.46567,0.47413 v 0.04233 c -0.79163,-0.0042 -1.2319,0.2667 -1.2319,0.762 0,0.29633 0.21167,0.58843 0.62653,0.58843 0.2921,0 0.51223,-0.14393 0.62653,-0.3048 h 0.0127 l 0.02963,0.25823 h 0.33867 C 89.78447,19.55158 89.776,19.37801 89.776,19.20021 Z m -0.35983,0.56727 c 0,0.0381 -0.0085,0.08043 -0.02117,0.11853 -0.05927,0.17357 -0.2286,0.3429 -0.4953,0.3429 -0.1905,0 -0.35137,-0.1143 -0.35137,-0.3556 0,-0.39793 0.46143,-0.4699 0.86783,-0.46143 z"
         id="path408" />
      <path
         d="m 90.521,17.266 v 0.37677 h -0.3175 v 0.28363 h 0.3175 v 1.1176 c 0,0.2413 0.0381,0.42333 0.14393,0.5334 0.0889,0.1016 0.2286,0.16087 0.40217,0.16087 0.14393,0 0.25823,-0.0254 0.3302,-0.05503 l -0.01693,-0.2794 c -0.05503,0.01693 -0.1143,0.0254 -0.2159,0.0254 -0.20743,0 -0.2794,-0.14393 -0.2794,-0.39793 v -1.1049 h 0.5334 v -0.28364 h -0.5334 V 17.1517 Z"
         id="path410" />
      <path
         d="m 92.28,19.691 v -2.0489 h -0.37253 v 2.0489 z m -0.18627,-2.8575 c -0.13547,0 -0.23283,0.1016 -0.23283,0.23283 0,0.127 0.09313,0.2286 0.22437,0.2286 0.14817,0 0.2413,-0.1016 0.23707,-0.2286 0,-0.13123 -0.0889,-0.23283 -0.2286,-0.23283 z"
         id="path412" />
      <path
         d="m 93.842,17.596 c -0.56727,0 -1.016,0.40217 -1.016,1.088 0,0.6477 0.42757,1.0541 0.98213,1.0541 0.4953,0 1.0202,-0.3302 1.0202,-1.088 0,-0.62653 -0.39793,-1.0541 -0.98637,-1.0541 z m -0.0085,0.2794 c 0.44027,0 0.61383,0.44027 0.61383,0.7874 0,0.46143 -0.2667,0.79587 -0.6223,0.79587 -0.36407,0 -0.6223,-0.33867 -0.6223,-0.7874 0,-0.38947 0.1905,-0.79587 0.63077,-0.79587 z"
         id="path414" />
      <path
         d="m 95.371,19.691 h 0.37253 v -1.2319 c 0,-0.0635 0.0085,-0.127 0.0254,-0.17357 0.0635,-0.20743 0.254,-0.381 0.49953,-0.381 0.35137,0 0.47413,0.27517 0.47413,0.60537 v 1.1811 h 0.37253 v -1.2234 c 0,-0.70273 -0.44027,-0.87207 -0.7239,-0.87207 -0.33867,0 -0.57573,0.1905 -0.67733,0.38523 h -0.0085 l -0.02113,-0.33867 h -0.3302 c 0.0127,0.16933 0.01693,0.3429 0.01693,0.55457 z"
         id="path416" />
      <path
         d="m 97.954,19.738 c 0.15663,0 0.254,-0.1143 0.254,-0.2667 0,-0.15663 -0.1016,-0.2667 -0.24977,-0.2667 -0.14817,0 -0.254,0.11007 -0.254,0.2667 0,0.1524 0.1016,0.2667 0.24553,0.2667 z"
         id="path418" />
      <path
         d="m 99.732,16.838 v 2.8533 h 0.3683 v -1.3377 h 1.3801 v 1.3377 h 0.37253 V 16.838 h -0.37253 v 1.1938 h -1.3801 V 16.838 Z"
         id="path420" />
      <path
         d="m 103.42,17.596 c -0.56727,0 -1.016,0.40217 -1.016,1.088 0,0.6477 0.42756,1.0541 0.98213,1.0541 0.4953,0 1.0202,-0.3302 1.0202,-1.088 0,-0.62653 -0.39793,-1.0541 -0.98636,-1.0541 z m -0.008,0.2794 c 0.44027,0 0.61383,0.44027 0.61383,0.7874 0,0.46143 -0.2667,0.79587 -0.6223,0.79587 -0.36406,0 -0.6223,-0.33867 -0.6223,-0.7874 0,-0.38947 0.1905,-0.79587 0.63077,-0.79587 z"
         id="path422" />
      <path
         d="m 105.04,17.266 v 0.37677 h -0.3175 v 0.28363 h 0.3175 v 1.1176 c 0,0.2413 0.0381,0.42333 0.14394,0.5334 0.0889,0.1016 0.2286,0.16087 0.40216,0.16087 0.14394,0 0.25824,-0.0254 0.3302,-0.05503 l -0.0169,-0.2794 c -0.055,0.01693 -0.1143,0.0254 -0.2159,0.0254 -0.20743,0 -0.2794,-0.14393 -0.2794,-0.39793 v -1.1049 h 0.5334 v -0.28364 h -0.5334 V 17.1517 Z"
         id="path424" />
      <path
         d="m 106.79,16.686 h -0.3683 v 3.0057 h 0.3683 v -0.77047 l 0.1905,-0.21167 0.70697,0.98213 h 0.45297 l -0.9017,-1.2065 0.79163,-0.84243 h -0.44873 l -0.60114,0.70697 c -0.0593,0.07197 -0.13123,0.16087 -0.18203,0.23283 h -0.008 z"
         id="path426" />
      <path
         d="m 110.13,18.735 c 0.004,-0.0381 0.0127,-0.09737 0.0127,-0.17357 0,-0.37677 -0.1778,-0.9652 -0.84667,-0.9652 -0.5969,0 -0.96097,0.48683 -0.96097,1.1049 0,0.61807 0.37677,1.0372 1.0075,1.0372 0.32596,0 0.55033,-0.07197 0.68156,-0.13123 l -0.0635,-0.2667 c -0.1397,0.05927 -0.30056,0.10583 -0.56726,0.10583 -0.37254,0 -0.69427,-0.20743 -0.70274,-0.7112 z m -1.4351,-0.2667 c 0.0296,-0.25823 0.19473,-0.60537 0.5715,-0.60537 0.4191,0 0.5207,0.3683 0.51646,0.60537 z"
         id="path428" />
      <path
         d="m 110.41,17.642 0.75776,1.8881 c 0.0169,0.04657 0.0254,0.0762 0.0254,0.09737 0,0.02117 -0.0127,0.0508 -0.0296,0.0889 -0.0847,0.1905 -0.21167,0.33443 -0.31327,0.41487 -0.11006,0.09313 -0.23283,0.1524 -0.32596,0.18203 l 0.0931,0.31327 c 0.0931,-0.01693 0.27517,-0.08043 0.4572,-0.2413 0.254,-0.22013 0.43603,-0.57997 0.70273,-1.2827 l 0.5588,-1.4605 h -0.3937 l -0.4064,1.2023 c -0.0508,0.14817 -0.0931,0.3048 -0.13123,0.42757 h -0.008 c -0.0339,-0.12277 -0.0847,-0.28363 -0.13123,-0.4191 l -0.4492,-1.2107 z"
         id="path430" />
      <path
         d="m 112.58,19.594 c 0.14393,0.08467 0.35136,0.14393 0.57573,0.14393 0.48683,0 0.76623,-0.25823 0.76623,-0.61807 0,-0.3048 -0.18203,-0.4826 -0.53763,-0.61807 -0.2667,-0.1016 -0.38947,-0.1778 -0.38947,-0.34713 0,-0.1524 0.12277,-0.2794 0.3429,-0.2794 0.1905,0 0.33867,0.06773 0.4191,0.11853 l 0.0931,-0.27093 c -0.1143,-0.06773 -0.29634,-0.127 -0.50377,-0.127 -0.44027,0 -0.70697,0.27093 -0.70697,0.60113 0,0.24553 0.17357,0.44873 0.54187,0.57997 0.27517,0.1016 0.381,0.19897 0.381,0.37677 0,0.16933 -0.127,0.3048 -0.39793,0.3048 -0.18627,0 -0.381,-0.0762 -0.49107,-0.14817 z"
         id="path432" />
      <path
         d="m 114.59,19.738 c 0.15664,0 0.254,-0.1143 0.254,-0.2667 0,-0.15663 -0.1016,-0.2667 -0.24976,-0.2667 -0.14817,0 -0.254,0.11007 -0.254,0.2667 0,0.1524 0.1016,0.2667 0.24553,0.2667 z"
         id="path434" />
      <path
         d="m 116.22,19.552 c 0.1524,0.1016 0.45296,0.18627 0.72813,0.18627 0.6731,0 0.99907,-0.38523 0.99907,-0.8255 0,-0.4191 -0.24554,-0.65193 -0.72814,-0.8382 -0.3937,-0.1524 -0.56726,-0.28363 -0.56726,-0.55033 0,-0.19473 0.14816,-0.42757 0.53763,-0.42757 0.25823,0 0.44873,0.08467 0.54187,0.13547 l 0.1016,-0.30057 c -0.127,-0.07197 -0.33867,-0.1397 -0.63077,-0.1397 -0.55457,0 -0.92287,0.3302 -0.92287,0.7747 0,0.40217 0.28787,0.64347 0.75354,0.80857 0.38523,0.14817 0.53763,0.30057 0.53763,0.56727 0,0.28787 -0.22013,0.48683 -0.5969,0.48683 -0.254,0 -0.4953,-0.08467 -0.6604,-0.18627 z"
         id="path436" />
      <path
         d="m 119.93,19.336 c -0.10583,0.04657 -0.24553,0.1016 -0.4572,0.1016 -0.4064,0 -0.7112,-0.2921 -0.7112,-0.76623 0,-0.42757 0.254,-0.7747 0.7239,-0.7747 0.2032,0 0.3429,0.04657 0.4318,0.09737 l 0.0847,-0.28787 c -0.1016,-0.0508 -0.29633,-0.10583 -0.51647,-0.10583 -0.66886,0 -1.1007,0.4572 -1.1007,1.088 0,0.62653 0.40216,1.0499 1.0202,1.0499 0.27517,0 0.49107,-0.07197 0.58843,-0.12277 z"
         id="path438" />
      <path
         d="m 120.5,19.691 h 0.3683 v -1.0922 c 0,-0.0635 0.008,-0.12277 0.0169,-0.17357 0.0508,-0.2794 0.23707,-0.47837 0.49954,-0.47837 0.0508,0 0.0889,0.0042 0.127,0.0127 v -0.35137 c -0.0339,-0.0085 -0.0635,-0.0127 -0.10584,-0.0127 -0.24976,0 -0.47413,0.17357 -0.56726,0.44873 h -0.0169 l -0.0127,-0.40217 h -0.32596 c 0.0127,0.1905 0.0169,0.39793 0.0169,0.63923 z"
         id="path440" />
      <path
         d="m 122.35,19.691 v -2.0489 h -0.37253 v 2.0489 z m -0.18627,-2.8575 c -0.13546,0 -0.23283,0.1016 -0.23283,0.23283 0,0.127 0.0931,0.2286 0.22437,0.2286 0.14816,0 0.2413,-0.1016 0.23706,-0.2286 0,-0.13123 -0.0889,-0.23283 -0.2286,-0.23283 z"
         id="path442" />
      <path
         d="m 123.04,20.53 h 0.3683 v -1.1134 h 0.008 c 0.12277,0.2032 0.35984,0.32173 0.63077,0.32173 0.4826,0 0.93133,-0.36407 0.93133,-1.1007 0,-0.6223 -0.37253,-1.0414 -0.86783,-1.0414 -0.33443,0 -0.57573,0.14817 -0.72813,0.39793 h -0.008 l -0.0169,-0.35137 h -0.33444 c 0.008,0.19473 0.0169,0.4064 0.0169,0.66887 z m 0.3683,-2.0235 c 0,-0.0508 0.0127,-0.10583 0.0254,-0.1524 0.072,-0.2794 0.30903,-0.46143 0.56303,-0.46143 0.3937,0 0.6096,0.35137 0.6096,0.762 0,0.4699 -0.2286,0.79163 -0.6223,0.79163 -0.2667,0 -0.49107,-0.1778 -0.5588,-0.43603 -0.008,-0.04657 -0.0169,-0.09737 -0.0169,-0.1524 z"
         id="path444" />
      <path
         d="m 125.6,17.266 v 0.37677 h -0.3175 V 17.9264 H 125.6 v 1.1176 c 0,0.2413 0.0381,0.42333 0.14393,0.5334 0.0889,0.1016 0.2286,0.16087 0.40217,0.16087 0.14393,0 0.25823,-0.0254 0.3302,-0.05503 l -0.0169,-0.2794 c -0.055,0.01693 -0.1143,0.0254 -0.2159,0.0254 -0.20744,0 -0.2794,-0.14393 -0.2794,-0.39793 v -1.1049 h 0.5334 v -0.28364 h -0.5334 V 17.1517 Z"
         id="path446" />
      <path
         d="m 127.36,19.691 v -2.0489 h -0.37253 v 2.0489 z m -0.18626,-2.8575 c -0.13547,0 -0.23284,0.1016 -0.23284,0.23283 0,0.127 0.0931,0.2286 0.22437,0.2286 0.14817,0 0.2413,-0.1016 0.23707,-0.2286 0,-0.13123 -0.0889,-0.23283 -0.2286,-0.23283 z"
         id="path448" />
      <path
         d="m 128.06,19.691 h 0.37253 v -1.2319 c 0,-0.0635 0.008,-0.127 0.0254,-0.17357 0.0635,-0.20743 0.254,-0.381 0.49953,-0.381 0.35137,0 0.47414,0.27517 0.47414,0.60537 v 1.1811 h 0.37253 v -1.2234 c 0,-0.70273 -0.44027,-0.87207 -0.7239,-0.87207 -0.33867,0 -0.57573,0.1905 -0.67733,0.38523 h -0.008 l -0.0212,-0.33867 h -0.3302 c 0.0127,0.16933 0.0169,0.3429 0.0169,0.55457 z"
         id="path450" />
      <path
         d="m 132.23,18.205 c 0,-0.24977 0.008,-0.41487 0.0169,-0.56303 h -0.32597 l -0.0169,0.30903 h -0.008 c -0.0889,-0.16933 -0.28363,-0.3556 -0.63923,-0.3556 -0.4699,0 -0.92287,0.3937 -0.92287,1.088 0,0.56727 0.36407,0.99907 0.87207,0.99907 0.3175,0 0.53763,-0.1524 0.65193,-0.3429 h 0.008 v 0.2286 c 0,0.51647 -0.2794,0.71543 -0.6604,0.71543 -0.254,0 -0.46567,-0.0762 -0.60114,-0.16087 l -0.0931,0.28363 c 0.1651,0.11007 0.43603,0.16933 0.68157,0.16933 0.25823,0 0.5461,-0.05927 0.74506,-0.24553 0.19897,-0.1778 0.2921,-0.46567 0.2921,-0.93557 z m -0.3683,0.61383 c 0,0.0635 -0.008,0.13547 -0.0296,0.19897 -0.0804,0.23707 -0.28787,0.381 -0.51647,0.381 -0.40216,0 -0.60536,-0.33443 -0.60536,-0.7366 0,-0.47413 0.254,-0.7747 0.6096,-0.7747 0.27093,0 0.45296,0.1778 0.5207,0.3937 0.0169,0.0508 0.0212,0.10583 0.0212,0.16933 z"
         id="path452" />
      <path
         d="m 133.01,19.738 c 0.15663,0 0.254,-0.1143 0.254,-0.2667 0,-0.15663 -0.1016,-0.2667 -0.24977,-0.2667 -0.14816,0 -0.254,0.11007 -0.254,0.2667 0,0.1524 0.1016,0.2667 0.24554,0.2667 z"
         id="path454" />
    </g>
  </g>
  <g
     transform="matrix(4.04,0,0,4.04,-6.7076121,-4.8580359)"
     id="g466">
    <rect
       x="3.5892"
       y="3.0506001"
       width="19.289"
       height="18.493999"
       ry="1.5066"
       filter="url(#ab)"
       style="paint-order:stroke fill markers"
       id="rect460" />
    <rect
       x="24.742001"
       y="3.0506001"
       width="19.311001"
       height="18.493999"
       ry="1.5066"
       filter="url(#ac)"
       style="paint-order:stroke fill markers"
       id="rect462" />
    <rect
       x="45.904999"
       y="3.0506001"
       width="19.313"
       height="18.493999"
       ry="1.5066"
       filter="url(#ad)"
       style="paint-order:stroke fill markers"
       id="rect464" />
  </g>
  <g
     transform="matrix(4.04,0,0,4.04,-6.7076121,-4.8580359)"
     id="g522">
    <rect
       x="3.5892"
       y="5.3909001"
       width="1.4627"
       height="12.886"
       fill="url(#h)"
       style="fill:url(#h);paint-order:stroke fill markers"
       id="rect468" />
    <rect
       transform="scale(-1,1)"
       x="-22.878"
       y="5.4201002"
       width="2.0071001"
       height="12.39"
       fill="url(#g)"
       style="fill:url(#g);paint-order:stroke fill markers"
       id="rect470" />
    <rect
       x="5.2919998"
       y="3.0506001"
       width="14.967"
       height="1.0441"
       fill="#f3f3f3"
       style="paint-order:stroke fill markers"
       id="rect472" />
    <path
       d="M 4.8887,5.9034 3.5892,5.47082 V 4.46862 C 3.653157,3.55429 4.43483,3.05092 5.0387,3.05092 l 0.27581,-2.722e-4 0.46682,1.8521 z"
       fill="url(#m)"
       stroke-width="0.26458"
       id="path474"
       style="fill:url(#m)" />
    <path
       d="M 20.935,6.7218 22.878,5.5032 V 4.4183 C 22.83264,3.90911 22.42218,3.0935 21.4109,3.0503 l -1.3372,2.717e-4 -0.46142,2.2406 z"
       fill="url(#l)"
       stroke-width="0.26458"
       id="path476"
       style="fill:url(#l)" />
    <path
       d="m 20.643,17.311 2.2349,0.43286 v 2.4326 c -0.04536,0.50919 -0.45582,1.3248 -1.4671,1.368 h -1.1966 l -0.39775,-2.191 z"
       fill="url(#n)"
       stroke-width="0.26458"
       id="path478"
       style="fill:url(#n)" />
    <path
       d="M 5.8076,17.79 3.5892,17.69369 v 2.4326 c 0.063957,0.91433 0.84563,1.4177 1.4495,1.4177 H 6.25 l 0.48335,-2.1415 z"
       fill="url(#o)"
       stroke-width="0.26458"
       id="path480"
       style="fill:url(#o)" />
    <rect
       x="6.1978998"
       y="18.111"
       width="14.043"
       height="3.4330001"
       fill="#b7b7b7"
       stroke-width="0.33319"
       id="rect482" />
    <rect
       transform="scale(-1,1)"
       x="-44.053001"
       y="5.3625002"
       width="2.0071001"
       height="12.39"
       fill="url(#u)"
       style="fill:url(#u);paint-order:stroke fill markers"
       id="rect484" />
    <rect
       x="26.455"
       y="3.0506001"
       width="14.851"
       height="1.1844"
       fill="#f3f3f3"
       style="paint-order:stroke fill markers"
       id="rect486" />
    <path
       d="M 26.042,5.9034 24.7425,5.47082 v -1.0022 c 0.06396,-0.91433 0.84563,-1.4177 1.4495,-1.4177 l 0.27581,-2.722e-4 0.46682,1.8521 z"
       fill="url(#s)"
       stroke-width="0.26458"
       id="path488"
       style="fill:url(#s)" />
    <path
       d="M 42.11,6.7218 44.053,5.5032 V 4.4183 C 44.00764,3.90911 43.59718,3.0935 42.5859,3.0503 l -1.3372,2.717e-4 -0.03147,2.6706 z"
       fill="url(#q)"
       stroke-width="0.26458"
       id="path490"
       style="fill:url(#q)" />
    <rect
       transform="scale(-1,1)"
       x="-65.216003"
       y="5.3625002"
       width="2.0071001"
       height="12.39"
       fill="url(#t)"
       style="fill:url(#t);paint-order:stroke fill markers"
       id="rect492" />
    <rect
       x="47.618"
       y="3.0506001"
       width="14.851"
       height="1.5236"
       fill="#f3f3f3"
       style="paint-order:stroke fill markers"
       id="rect494" />
    <path
       d="M 47.621,6.4997 45.9053,5.4708 V 4.4686 c 0.06396,-0.91433 0.84563,-1.4177 1.4495,-1.4177 l 0.27581,-2.722e-4 0.46682,1.8521 z"
       fill="url(#r)"
       stroke-width="0.26458"
       id="path496"
       style="fill:url(#r)" />
    <path
       d="M 63.273,6.7218 65.216,5.5032 V 4.4183 C 65.17064,3.90911 64.76018,3.0935 63.7489,3.0503 l -1.3372,2.717e-4 -0.03147,2.6706 z"
       fill="url(#p)"
       stroke-width="0.26458"
       id="path498"
       style="fill:url(#p)" />
    <path
       d="m 41.82,17.311 2.2349,0.43286 v 2.4326 c -0.04536,0.50919 -0.45582,1.3248 -1.4671,1.368 h -1.1966 l -0.46389,-3.2328 z"
       fill="url(#y)"
       stroke-width="0.26458"
       id="path500"
       style="fill:url(#y)" />
    <path
       d="m 48.14,17.261 -2.2349,0.43286 v 2.4326 c 0.06396,0.91433 0.84563,1.4177 1.4495,1.4177 h 1.2113 l 0.46682,-3.2825 z"
       fill="url(#z)"
       stroke-width="0.26458"
       id="path502"
       style="fill:url(#z)" />
    <path
       d="m 62.983,17.311 2.2349,0.43286 v 2.4326 c -0.04536,0.50919 -0.45582,1.3248 -1.4671,1.368 h -1.1966 l -0.46389,-3.2328 z"
       fill="url(#x)"
       stroke-width="0.26458"
       id="path504"
       style="fill:url(#x)" />
    <path
       d="m 26.919,17.928 -2.1764,-0.23365 v 2.4326 c 0.06396,0.91433 0.84563,1.4177 1.4495,1.4177 h 1.2113 l 1.0164,-2.5225 z"
       fill="url(#aa)"
       stroke-width="0.26458"
       id="path506"
       style="fill:url(#aa)" />
    <rect
       x="27.403"
       y="18.111"
       width="14.241"
       height="3.4330001"
       fill="#b7b7b7"
       stroke-width="0.33553"
       id="rect508" />
    <rect
       x="24.742001"
       y="5.3041"
       width="1.6971999"
       height="12.952"
       fill="url(#w)"
       style="fill:url(#w);paint-order:stroke fill markers"
       id="rect510" />
    <rect
       x="26.184999"
       y="3.9461999"
       width="16.409"
       height="15.996"
       ry="1.3031"
       fill="url(#j)"
       style="fill:url(#j);paint-order:stroke fill markers"
       id="rect512" />
    <rect
       x="48.368"
       y="18.111"
       width="14.506"
       height="3.4330001"
       fill="#b7b7b7"
       stroke-width="0.33863"
       id="rect514" />
    <rect
       x="45.904999"
       y="5.3041"
       width="1.744"
       height="12.82"
       fill="url(#v)"
       style="fill:url(#v);paint-order:stroke fill markers"
       id="rect516" />
    <rect
       x="47.620998"
       y="3.9461999"
       width="16.407"
       height="15.996"
       ry="1.3031"
       fill="url(#i)"
       style="fill:url(#i);paint-order:stroke fill markers"
       id="rect518" />
    <rect
       x="4.5837002"
       y="3.9461999"
       width="16.351"
       height="15.996"
       ry="1.3031"
       fill="url(#k)"
       style="fill:url(#k);paint-order:stroke fill markers"
       id="rect520" />
  </g>
  <g
     transform="matrix(4.04,0,0,4.04,-6.7076121,-4.8580359)"
     id="g540">
    <g
       aria-label="A"
       id="g526">
      <path
         d="m 9.6509,16.809 0.40076,1.1797 h 0.59831 L 9.18237,13.936 H 8.56148 l -1.524,4.0527 H 7.60192 L 8.02525,16.809 Z m -1.4563,-0.48542 0.64911,-1.7836 h 0.011289 l 0.59831,1.7836 z"
         stroke-width=".26458"
         id="path524" />
    </g>
    <g
       aria-label="H"
       id="g530">
      <path
         d="m 31.74,15.64 h -2.1167 v -1.6764 h -0.54751 v 4.0527 H 29.6233 V 16.1254 H 31.74 v 1.8909 h 0.54751 V 13.9636 H 31.74 Z"
         stroke-width=".26458"
         id="path528" />
    </g>
    <text
       x="50.560715"
       y="16.130398"
       fill="#000000"
       font-family="'Myriad Pro'"
       font-size="5.6444px"
       letter-spacing="0px"
       stroke-width="0.26458"
       word-spacing="0px"
       style="line-height:1.25"
       xml:space="preserve"
       id="text534"><tspan
         x="50.560715"
         y="21.069286"
         stroke-width=".26458"
         id="tspan532" /></text>
    <g
       aria-label="K"
       id="g538">
      <path
         d="m 50.818,16.572 0.63782,-0.6096 1.4168,2.032 h 0.7112 l -1.7328,-2.4158 1.6877,-1.6369 h -0.75636 l -1.9643,1.9643 v -1.9643 h -0.54751 v 4.0527 h 0.54751 z"
         stroke-width=".26458"
         id="path536" />
    </g>
  </g>
</svg>
